#!OML:ASF E:\Steps\Project 1\Capture day 1\Session 2\Subject.ASF
:FULLY-SPECIFIED
:DEGREES
643
root 9.95632 21.6962 -6.63419 -153.312 -0.676251 178.48
lowerback -18.1642 -2.04635 -2.43923
upperback 1.9929 -2.35287 1.13359
thorax 12.6297 -1.3314 1.97008
lowerneck -2.81121 -1.75393 -0.120654
upperneck 16.8179 -2.03481 3.64437
head 5.565 -0.402872 1.08162
rclavicle -2.48481e-016 -4.77083e-015
rhumerus -37.6022 -13.9995 -78.0938
rradius 41.7372
rwrist -5.67166
rhand -6.4208 -51.94
rfingers 7.12502
rthumb 19.4278 -80.9894
lclavicle -2.48481e-016 -4.77083e-015
lhumerus -29.785 3.20962 80.6158
lradius 30.4841
lwrist 0.762809
lhand -20.7046 -14.2758
lfingers 7.12502
lthumb 5.65952 15.6286
rfemur -46.6998 4.31479 21.964
rtibia 34.7548
rfoot -21.9398 -10.9123
rtoes -30.134
lfemur -55.7375 -1.5647 -21.0275
ltibia 87.1452
lfoot 4.31629 -34.4564
ltoes -39.59
644
root 9.96788 21.7386 -6.66595 -153.309 -0.791105 178.467
lowerback -18.1401 -2.0022 -2.43054
upperback 1.93913 -2.29167 1.08294
thorax 12.5472 -1.29938 1.92756
lowerneck -2.76499 -1.77885 -0.200314
upperneck 16.7548 -2.08127 3.78744
head 5.54049 -0.421865 1.13713
rclavicle 8.39865e-015 -3.77691e-015
rhumerus -37.2997 -14.1782 -78.0978
rradius 41.3336
rwrist -5.69359
rhand -6.49857 -52.0256
rfingers 7.12502
rthumb 19.353 -81.0826
lclavicle 8.39865e-015 -3.77691e-015
lhumerus -29.7164 3.24521 80.4878
lradius 30.4372
lwrist 0.747338
lhand -21.0363 -14.685
lfingers 7.12502
lthumb 5.33927 15.2277
rfemur -46.0466 4.30942 22.0194
rtibia 34.1251
rfoot -22.1255 -10.8477
rtoes -29.3414
lfemur -57.5012 -1.70957 -21.028
ltibia 89.133
lfoot 8.16623 -49.1143
ltoes -39.8425
645
root 9.98209 21.779 -6.70329 -153.408 -0.975521 178.393
lowerback -18.0689 -1.98747 -2.55362
upperback 1.92842 -2.23958 1.03286
thorax 12.4932 -1.28082 1.95876
lowerneck -2.50304 -1.78594 -0.276012
upperneck 16.4638 -2.11163 3.9988
head 5.40838 -0.437209 1.21406
rclavicle 1.75924e-014 -2.88238e-015
rhumerus -37.1669 -14.2537 -78.1293
rradius 41.2096
rwrist -5.95124
rhand -6.8801 -52.0082
rfingers 7.12502
rthumb 18.9861 -81.1016
lclavicle 1.75924e-014 -2.88238e-015
lhumerus -29.6719 3.29423 80.3639
lradius 30.39
lwrist 0.685821
lhand -21.3794 -14.8186
lfingers 7.12502
lthumb 5.00799 15.1022
rfemur -45.261 4.26151 22.0058
rtibia 32.8775
rfoot -21.3833 -11.3159
rtoes -30.984
lfemur -59.059 -1.87951 -21.0376
ltibia 90.0414
lfoot 16.3555 -63.4456
ltoes -39.8073
646
root 9.99613 21.8185 -6.73982 -153.493 -1.17776 178.322
lowerback -18.0326 -1.97391 -2.65118
upperback 1.9612 -2.19112 0.969064
thorax 12.508 -1.26204 1.95787
lowerneck -2.83494 -1.86633 -0.468758
upperneck 16.9778 -2.22844 4.27656
head 5.63315 -0.459793 1.32903
rclavicle 2.98177e-016 5.26779e-015
rhumerus -37.2259 -14.3283 -78.1933
rradius 41.4329
rwrist -6.2895
rhand -7.21454 -51.6797
rfingers 7.12502
rthumb 18.6645 -80.8043
lclavicle 2.98177e-016 5.26779e-015
lhumerus -29.4815 3.41034 80.209
lradius 30.2242
lwrist 0.616374
lhand -21.5521 -14.6407
lfingers 7.12502
lthumb 4.84128 15.284
rfemur -44.5303 4.27585 21.9668
rtibia 31.9887
rfoot -21.1169 -11.7434
rtoes -31.6438
lfemur -60.6225 -1.98846 -21.0502
ltibia 89.9094
lfoot 40.6751 -76.1284
ltoes -39.5059
647
root 10.0084 21.857 -6.76577 -153.609 -1.23719 178.199
lowerback -17.8869 -1.93452 -2.75361
upperback 2.01655 -2.10396 0.865473
thorax 12.4807 -1.22329 1.92883
lowerneck -2.88328 -1.84812 -0.0674351
upperneck 16.5762 -2.20594 3.81616
head 5.50679 -0.480615 1.11509
rclavicle 1.2424e-015 9.93923e-016
rhumerus -37.215 -14.5158 -78.241
rradius 41.6806
rwrist -6.27058
rhand -7.0747 -51.5019
rfingers 7.12502
rthumb 18.799 -80.6135
lclavicle 1.2424e-015 9.93923e-016
lhumerus -29.3784 3.47599 80.0588
lradius 30.2515
lwrist 0.546857
lhand -21.7188 -14.7809
lfingers 7.12502
lthumb 4.68034 15.1474
rfemur -43.8183 4.30927 21.844
rtibia 31.1304
rfoot -20.991 -11.8823
rtoes -31.9897
lfemur -62.1901 -1.99995 -21.192
ltibia 88.8273
lfoot 113.436 -78.5881
ltoes -39.7542
648
root 10.0172 21.8915 -6.79682 -153.744 -1.27936 178.114
lowerback -17.9026 -1.93318 -2.82485
upperback 2.10129 -2.07747 0.820784
thorax 12.5867 -1.21484 1.92612
lowerneck -3.38934 -1.90727 -0.2813
upperneck 17.2233 -2.26062 3.8117
head 5.79962 -0.492467 1.14719
rclavicle 3.8763e-015 4.96962e-016
rhumerus -36.9893 -14.3658 -78.3446
rradius 41.7613
rwrist -6.27227
rhand -7.0083 -51.5505
rfingers 7.12502
rthumb 18.8628 -80.6559
lclavicle 3.8763e-015 4.96962e-016
lhumerus -29.494 3.59673 79.9715
lradius 30.496
lwrist 0.581682
lhand -21.8057 -14.8004
lfingers 7.12502
lthumb 4.59641 15.1298
rfemur -42.8787 4.19446 21.8291
rtibia 29.7815
rfoot -20.4679 -11.8976
rtoes -32.8996
lfemur -63.6965 -2.02486 -21.3089
ltibia 87.0486
lfoot 148.885 -67.0556
ltoes -39.8446
649
root 10.0251 21.9253 -6.83667 -153.858 -1.35645 178.017
lowerback -18.0123 -1.90195 -2.87674
upperback 2.23778 -2.00396 0.715595
thorax 12.8015 -1.18164 1.85596
lowerneck -3.66074 -1.85903 0.0674242
upperneck 17.2418 -2.20248 3.52969
head 5.8445 -0.464886 1.00179
rclavicle 1.08835e-014 2.28602e-015
rhumerus -36.6306 -14.1571 -78.6039
rradius 41.6874
rwrist -6.57489
rhand -7.34593 -51.3626
rfingers 7.12502
rthumb 18.5381 -80.4992
lclavicle 1.08835e-014 2.28602e-015
lhumerus -29.3224 3.61311 79.8378
lradius 30.5513
lwrist 0.794467
lhand -21.7156 -14.7901
lfingers 7.12502
lthumb 4.68338 15.1381
rfemur -41.9871 4.18844 21.7492
rtibia 28.6808
rfoot -20.1691 -12.0479
rtoes -33.2875
lfemur -65.2171 -2.12416 -21.4052
ltibia 84.8967
lfoot 158.525 -52.6449
ltoes -38.7053
650
root 10.0362 21.9556 -6.87031 -153.911 -1.42786 177.801
lowerback -17.9668 -1.88883 -3.04437
upperback 2.21897 -1.9291 0.532887
thorax 12.7478 -1.15018 1.77042
lowerneck -3.10113 -1.81667 0.0455051
upperneck 16.6804 -2.17028 3.77406
head 5.57445 -0.454057 1.0845
rclavicle 6.26172e-015 6.11263e-015
rhumerus -36.7524 -13.9331 -78.871
rradius 41.947
rwrist -6.96886
rhand -7.482 -50.9273
rfingers 7.12502
rthumb 18.4072 -80.0764
lclavicle 6.26172e-015 6.11263e-015
lhumerus -29.3457 3.57622 79.5896
lradius 30.612
lwrist 0.938951
lhand -21.5772 -14.8017
lfingers 7.12502
lthumb 4.81706 15.1235
rfemur -41.5431 4.33563 21.4618
rtibia 28.3679
rfoot -20.3506 -12.2536
rtoes -32.705
lfemur -66.8798 -2.25686 -21.6359
ltibia 82.6907
lfoot 163.988 -38.0749
ltoes -39.4396
651
root 10.0458 21.9834 -6.89616 -153.983 -1.55446 177.662
lowerback -17.7566 -1.90584 -3.13583
upperback 2.13873 -1.92871 0.427382
thorax 12.5313 -1.14967 1.71065
lowerneck -3.54912 -1.98737 -0.284558
upperneck 17.7489 -2.38431 4.178
head 5.99967 -0.491511 1.25997
rclavicle -6.28657e-015 7.95139e-016
rhumerus -37.1421 -13.4647 -79.1042
rradius 42.6379
rwrist -7.49954
rhand -7.72855 -50.7419
rfingers 7.12502
rthumb 18.17 -79.9133
lclavicle -6.28657e-015 7.95139e-016
lhumerus -29.4983 3.73275 79.362
lradius 30.5978
lwrist 0.821673
lhand -21.4336 -14.4738
lfingers 7.12502
lthumb 4.95566 15.4483
rfemur -41.1389 4.3119 21.3694
rtibia 28.0577
rfoot -20.3849 -12.4943
rtoes -32.9348
lfemur -68.4964 -2.34048 -21.8395
ltibia 80.9146
lfoot 167.991 -23.6717
ltoes -43.3439
